<mxfile host="65bd71144e">
    <diagram id="WuXmndqSKlnezu4MmCE9" name="Page-1">
        <mxGraphModel dx="1085" dy="800" grid="1" gridSize="10" guides="1" tooltips="1" connect="1" arrows="1" fold="1" page="1" pageScale="1" pageWidth="850" pageHeight="1100" math="0" shadow="0">
            <root>
                <mxCell id="0"/>
                <mxCell id="1" parent="0"/>
                <mxCell id="11" value="" style="rounded=1;whiteSpace=wrap;html=1;fillColor=#f5f5f5;fontColor=#333333;strokeColor=#666666;arcSize=5;" vertex="1" parent="1">
                    <mxGeometry x="40" y="80" width="440" height="480" as="geometry"/>
                </mxCell>
                <mxCell id="2" value="Screen Coordinate Counter" style="rounded=0;whiteSpace=wrap;html=1;" parent="1" vertex="1">
                    <mxGeometry x="80" y="480" width="360" height="40" as="geometry"/>
                </mxCell>
                <mxCell id="3" value="Complex coordinate generator" style="rounded=0;whiteSpace=wrap;html=1;" parent="1" vertex="1">
                    <mxGeometry x="80" y="320" width="120" height="80" as="geometry"/>
                </mxCell>
                <mxCell id="4" value="Julia one iteration" style="rounded=0;whiteSpace=wrap;html=1;" parent="1" vertex="1">
                    <mxGeometry x="240" y="320" width="120" height="80" as="geometry"/>
                </mxCell>
                <mxCell id="5" value="FSM" style="rounded=0;whiteSpace=wrap;html=1;" parent="1" vertex="1">
                    <mxGeometry x="80" y="160" width="360" height="80" as="geometry"/>
                </mxCell>
                <mxCell id="7" value="" style="shape=flexArrow;endArrow=classic;html=1;fillColor=#4D4D4D;strokeColor=none;" parent="1" edge="1">
                    <mxGeometry width="50" height="50" relative="1" as="geometry">
                        <mxPoint x="140" y="480" as="sourcePoint"/>
                        <mxPoint x="139.5" y="400" as="targetPoint"/>
                    </mxGeometry>
                </mxCell>
                <mxCell id="8" value="" style="shape=flexArrow;endArrow=classic;html=1;fillColor=#4D4D4D;strokeColor=none;" parent="1" edge="1">
                    <mxGeometry width="50" height="50" relative="1" as="geometry">
                        <mxPoint x="139.5" y="320" as="sourcePoint"/>
                        <mxPoint x="140" y="240" as="targetPoint"/>
                    </mxGeometry>
                </mxCell>
                <mxCell id="9" value="" style="shape=flexArrow;endArrow=classic;html=1;fillColor=#4D4D4D;strokeColor=none;startArrow=block;" parent="1" edge="1">
                    <mxGeometry width="50" height="50" relative="1" as="geometry">
                        <mxPoint x="299.5" y="320" as="sourcePoint"/>
                        <mxPoint x="300" y="240" as="targetPoint"/>
                    </mxGeometry>
                </mxCell>
                <mxCell id="10" value="" style="shape=flexArrow;endArrow=none;html=1;fillColor=#4D4D4D;strokeColor=none;startArrow=block;endFill=0;" parent="1" edge="1">
                    <mxGeometry width="50" height="50" relative="1" as="geometry">
                        <mxPoint x="401" y="480" as="sourcePoint"/>
                        <mxPoint x="400.5" y="240" as="targetPoint"/>
                    </mxGeometry>
                </mxCell>
                <mxCell id="12" value="Julia compute" style="rounded=0;whiteSpace=wrap;html=1;fillColor=none;strokeColor=none;fontSize=18;fontStyle=3" vertex="1" parent="1">
                    <mxGeometry x="40" y="80" width="240" height="60" as="geometry"/>
                </mxCell>
                <mxCell id="15" value="BRAM" style="rounded=1;whiteSpace=wrap;html=1;arcSize=5;fontSize=20;fontStyle=3" vertex="1" parent="1">
                    <mxGeometry x="560" y="80" width="160" height="480" as="geometry"/>
                </mxCell>
                <mxCell id="16" value="" style="shape=flexArrow;endArrow=none;html=1;fillColor=#4D4D4D;strokeColor=none;startArrow=block;endFill=0;entryX=1;entryY=0.5;entryDx=0;entryDy=0;exitX=0;exitY=0.5;exitDx=0;exitDy=0;" edge="1" parent="1" source="15" target="11">
                    <mxGeometry width="50" height="50" relative="1" as="geometry">
                        <mxPoint x="560.5" y="660" as="sourcePoint"/>
                        <mxPoint x="560" y="420" as="targetPoint"/>
                    </mxGeometry>
                </mxCell>
            </root>
        </mxGraphModel>
    </diagram>
</mxfile>